<mxfile host="65bd71144e">
    <diagram id="ywwP6c4tokRCVMQ7xgE5" name="Page-1">
        <mxGraphModel dx="3295" dy="1898" grid="1" gridSize="10" guides="1" tooltips="1" connect="1" arrows="1" fold="1" page="1" pageScale="1" pageWidth="850" pageHeight="1100" math="0" shadow="0">
            <root>
                <mxCell id="0"/>
                <mxCell id="1" parent="0"/>
                <mxCell id="119" value="" style="whiteSpace=wrap;html=1;aspect=fixed;container=1;" parent="1" vertex="1">
                    <mxGeometry x="-1020" y="-370" width="1750" height="1750" as="geometry"/>
                </mxCell>
                <mxCell id="5" value="Mercadoria Devolvida" style="rounded=0;whiteSpace=wrap;html=1;fillColor=#f0a30a;fontColor=#000000;strokeColor=#BD7000;" parent="119" vertex="1">
                    <mxGeometry x="730" y="730" width="130" height="70" as="geometry"/>
                </mxCell>
                <mxCell id="16" value="Devolver Mercadoria" style="rounded=0;whiteSpace=wrap;html=1;fillColor=#1ba1e2;fontColor=#ffffff;strokeColor=#006EAF;" parent="119" vertex="1">
                    <mxGeometry x="480" y="760" width="140" height="60" as="geometry"/>
                </mxCell>
                <mxCell id="140" style="edgeStyle=orthogonalEdgeStyle;html=1;" edge="1" parent="119" source="16" target="5">
                    <mxGeometry relative="1" as="geometry">
                        <Array as="points">
                            <mxPoint x="640" y="780"/>
                            <mxPoint x="640" y="780"/>
                        </Array>
                    </mxGeometry>
                </mxCell>
                <mxCell id="10" value="Expedir Mercadoria" style="rounded=0;whiteSpace=wrap;html=1;fillColor=#1ba1e2;strokeColor=#006EAF;fontColor=#ffffff;" parent="119" vertex="1">
                    <mxGeometry x="210" y="465" width="110" height="50" as="geometry"/>
                </mxCell>
                <mxCell id="23" value="&lt;font color=&quot;#111311&quot;&gt;Guia de Remessa&lt;/font&gt;" style="rounded=0;whiteSpace=wrap;html=1;fillColor=#ffff88;strokeColor=#36393d;" parent="119" vertex="1">
                    <mxGeometry x="470" y="435" width="120" height="80" as="geometry"/>
                </mxCell>
                <mxCell id="141" style="edgeStyle=orthogonalEdgeStyle;html=1;entryX=0;entryY=0.5;entryDx=0;entryDy=0;" edge="1" parent="119" source="10" target="23">
                    <mxGeometry relative="1" as="geometry">
                        <Array as="points">
                            <mxPoint x="390" y="475"/>
                            <mxPoint x="390" y="475"/>
                        </Array>
                    </mxGeometry>
                </mxCell>
                <mxCell id="15" value="Receber Mercadoria" style="rounded=0;whiteSpace=wrap;html=1;fillColor=#1ba1e2;fontColor=#ffffff;strokeColor=#006EAF;" parent="119" vertex="1">
                    <mxGeometry x="210" y="245" width="110" height="60" as="geometry"/>
                </mxCell>
                <mxCell id="155" style="edgeStyle=orthogonalEdgeStyle;html=1;exitX=1;exitY=0.5;exitDx=0;exitDy=0;" edge="1" parent="119" source="15" target="23">
                    <mxGeometry relative="1" as="geometry"/>
                </mxCell>
                <mxCell id="112" value="&lt;font color=&quot;#0e0707&quot;&gt;Utiizador&lt;/font&gt;" style="rounded=0;whiteSpace=wrap;html=1;fillColor=#fff2cc;strokeColor=#d6b656;" parent="119" vertex="1">
                    <mxGeometry x="190" y="295" width="60" height="30" as="geometry"/>
                </mxCell>
                <mxCell id="118" value="&lt;font color=&quot;#0e0707&quot;&gt;Utilizador&lt;/font&gt;" style="rounded=0;whiteSpace=wrap;html=1;fillColor=#fff2cc;strokeColor=#d6b656;" parent="119" vertex="1">
                    <mxGeometry x="190" y="505" width="60" height="30" as="geometry"/>
                </mxCell>
                <mxCell id="115" value="&lt;font color=&quot;#0e0707&quot;&gt;Utilizador&lt;/font&gt;" style="rounded=0;whiteSpace=wrap;html=1;fillColor=#fff2cc;strokeColor=#d6b656;" parent="119" vertex="1">
                    <mxGeometry x="460" y="800" width="60" height="30" as="geometry"/>
                </mxCell>
                <mxCell id="17" value="Devolver mercadoria com validade &amp;lt;30 dias" style="rounded=0;whiteSpace=wrap;html=1;fillColor=#6a00ff;fontColor=#ffffff;strokeColor=#3700CC;" parent="119" vertex="1">
                    <mxGeometry x="470" y="620" width="140" height="80" as="geometry"/>
                </mxCell>
                <mxCell id="134" value="" style="edgeStyle=orthogonalEdgeStyle;html=1;" edge="1" parent="119" source="23" target="17">
                    <mxGeometry relative="1" as="geometry">
                        <Array as="points">
                            <mxPoint x="530" y="600"/>
                            <mxPoint x="530" y="600"/>
                        </Array>
                    </mxGeometry>
                </mxCell>
                <mxCell id="138" style="edgeStyle=orthogonalEdgeStyle;html=1;entryX=0.5;entryY=0;entryDx=0;entryDy=0;" edge="1" parent="119" source="17" target="16">
                    <mxGeometry relative="1" as="geometry">
                        <Array as="points">
                            <mxPoint x="560" y="700"/>
                            <mxPoint x="560" y="700"/>
                        </Array>
                    </mxGeometry>
                </mxCell>
                <mxCell id="2" value="Mercadoria Recebida" style="rounded=0;whiteSpace=wrap;html=1;fillColor=#f0a30a;fontColor=#000000;strokeColor=#BD7000;" parent="1" vertex="1">
                    <mxGeometry x="-295" y="-30" width="120" height="60" as="geometry"/>
                </mxCell>
                <mxCell id="3" value="Mercadoria Expedida" style="rounded=0;whiteSpace=wrap;html=1;fillColor=#f0a30a;fontColor=#000000;strokeColor=#BD7000;" parent="1" vertex="1">
                    <mxGeometry x="-295" y="160" width="130" height="60" as="geometry"/>
                </mxCell>
                <mxCell id="158" style="edgeStyle=orthogonalEdgeStyle;html=1;exitX=1;exitY=0.25;exitDx=0;exitDy=0;" edge="1" parent="1" source="23" target="2">
                    <mxGeometry relative="1" as="geometry">
                        <Array as="points">
                            <mxPoint x="-370" y="130"/>
                            <mxPoint x="-370"/>
                        </Array>
                    </mxGeometry>
                </mxCell>
                <mxCell id="162" style="edgeStyle=orthogonalEdgeStyle;html=1;exitX=1;exitY=0.75;exitDx=0;exitDy=0;" edge="1" parent="1" source="23" target="3">
                    <mxGeometry relative="1" as="geometry">
                        <Array as="points">
                            <mxPoint x="-360" y="170"/>
                            <mxPoint x="-360" y="250"/>
                            <mxPoint x="-230" y="250"/>
                        </Array>
                    </mxGeometry>
                </mxCell>
            </root>
        </mxGraphModel>
    </diagram>
</mxfile>